<svg width="100" height="34" viewBox="0 0 100 34" fill="none" xmlns="http://www.w3.org/2000/svg">
<path d="M18 13C22.9706 13 27 11.6569 27 10C27 8.34315 22.9706 7 18 7C13.0294 7 9 8.34315 9 10C9 11.6569 13.0294 13 18 13Z" stroke="black" stroke-width="2" stroke-linecap="round" stroke-linejoin="round"/>
<path d="M9.00007 10V24C8.9945 24.4809 9.33587 24.9552 9.9954 25.383C10.6549 25.8107 11.6133 26.1793 12.7897 26.4577C13.9661 26.7361 15.3261 26.9162 16.755 26.9827C18.1839 27.0493 19.6398 27.0003 21.0001 26.84" stroke="black" stroke-width="2" stroke-linecap="round" stroke-linejoin="round"/>
<path d="M27 10V13" stroke="black" stroke-width="2" stroke-linecap="round" stroke-linejoin="round"/>
<path d="M27 17L24 22H28L25 27" stroke="black" stroke-width="2" stroke-linecap="round" stroke-linejoin="round"/>
<path d="M9 17C9.00145 17.4675 9.33069 17.9285 9.96146 18.3461C10.5922 18.7636 11.5071 19.1263 12.633 19.4051C13.7589 19.6839 15.0647 19.8711 16.4462 19.9519C17.8277 20.0326 19.2467 20.0045 20.59 19.87" stroke="black" stroke-width="2" stroke-linecap="round" stroke-linejoin="round"/>
<path d="M35.835 12.955V16.015H39.435V17.41H35.835V20.605H39.885V22H34.125V11.56H39.885V12.955H35.835ZM42.6212 17.83C42.6212 17 42.7912 16.265 43.1312 15.625C43.4812 14.985 43.9512 14.49 44.5412 14.14C45.1412 13.78 45.8012 13.6 46.5212 13.6C47.1712 13.6 47.7362 13.73 48.2162 13.99C48.7062 14.24 49.0962 14.555 49.3862 14.935V13.735H51.1112V22H49.3862V20.77C49.0962 21.16 48.7012 21.485 48.2012 21.745C47.7012 22.005 47.1312 22.135 46.4912 22.135C45.7812 22.135 45.1312 21.955 44.5412 21.595C43.9512 21.225 43.4812 20.715 43.1312 20.065C42.7912 19.405 42.6212 18.66 42.6212 17.83ZM49.3862 17.86C49.3862 17.29 49.2662 16.795 49.0262 16.375C48.7962 15.955 48.4912 15.635 48.1112 15.415C47.7312 15.195 47.3212 15.085 46.8812 15.085C46.4412 15.085 46.0312 15.195 45.6512 15.415C45.2712 15.625 44.9612 15.94 44.7212 16.36C44.4912 16.77 44.3762 17.26 44.3762 17.83C44.3762 18.4 44.4912 18.9 44.7212 19.33C44.9612 19.76 45.2712 20.09 45.6512 20.32C46.0412 20.54 46.4512 20.65 46.8812 20.65C47.3212 20.65 47.7312 20.54 48.1112 20.32C48.4912 20.1 48.7962 19.78 49.0262 19.36C49.2662 18.93 49.3862 18.43 49.3862 17.86ZM57.5572 22.135C56.9072 22.135 56.3222 22.02 55.8022 21.79C55.2922 21.55 54.8872 21.23 54.5872 20.83C54.2872 20.42 54.1272 19.965 54.1072 19.465H55.8772C55.9072 19.815 56.0722 20.11 56.3722 20.35C56.6822 20.58 57.0672 20.695 57.5272 20.695C58.0072 20.695 58.3772 20.605 58.6372 20.425C58.9072 20.235 59.0422 19.995 59.0422 19.705C59.0422 19.395 58.8922 19.165 58.5922 19.015C58.3022 18.865 57.8372 18.7 57.1972 18.52C56.5772 18.35 56.0722 18.185 55.6822 18.025C55.2922 17.865 54.9522 17.62 54.6622 17.29C54.3822 16.96 54.2422 16.525 54.2422 15.985C54.2422 15.545 54.3722 15.145 54.6322 14.785C54.8922 14.415 55.2622 14.125 55.7422 13.915C56.2322 13.705 56.7922 13.6 57.4222 13.6C58.3622 13.6 59.1172 13.84 59.6872 14.32C60.2672 14.79 60.5772 15.435 60.6172 16.255H58.9072C58.8772 15.885 58.7272 15.59 58.4572 15.37C58.1872 15.15 57.8222 15.04 57.3622 15.04C56.9122 15.04 56.5672 15.125 56.3272 15.295C56.0872 15.465 55.9672 15.69 55.9672 15.97C55.9672 16.19 56.0472 16.375 56.2072 16.525C56.3672 16.675 56.5622 16.795 56.7922 16.885C57.0222 16.965 57.3622 17.07 57.8122 17.2C58.4122 17.36 58.9022 17.525 59.2822 17.695C59.6722 17.855 60.0072 18.095 60.2872 18.415C60.5672 18.735 60.7122 19.16 60.7222 19.69C60.7222 20.16 60.5922 20.58 60.3322 20.95C60.0722 21.32 59.7022 21.61 59.2222 21.82C58.7522 22.03 58.1972 22.135 57.5572 22.135ZM71.2099 13.735L66.1399 25.885H64.3699L66.0499 21.865L62.7949 13.735H64.6999L67.0249 20.035L69.4399 13.735H71.2099ZM77.1054 11.575C78.2154 11.575 79.1854 11.79 80.0154 12.22C80.8554 12.64 81.5004 13.25 81.9504 14.05C82.4104 14.84 82.6404 15.765 82.6404 16.825C82.6404 17.885 82.4104 18.805 81.9504 19.585C81.5004 20.365 80.8554 20.965 80.0154 21.385C79.1854 21.795 78.2154 22 77.1054 22H73.7004V11.575H77.1054ZM77.1054 20.605C78.3254 20.605 79.2604 20.275 79.9104 19.615C80.5604 18.955 80.8854 18.025 80.8854 16.825C80.8854 15.615 80.5604 14.67 79.9104 13.99C79.2604 13.31 78.3254 12.97 77.1054 12.97H75.4104V20.605H77.1054ZM91.1152 16.645C91.6752 16.745 92.1502 17.04 92.5402 17.53C92.9302 18.02 93.1252 18.575 93.1252 19.195C93.1252 19.725 92.9852 20.205 92.7052 20.635C92.4352 21.055 92.0402 21.39 91.5202 21.64C91.0002 21.88 90.3952 22 89.7052 22H85.5352V11.575H89.5102C90.2202 11.575 90.8302 11.695 91.3402 11.935C91.8502 12.175 92.2352 12.5 92.4952 12.91C92.7552 13.31 92.8852 13.76 92.8852 14.26C92.8852 14.86 92.7252 15.36 92.4052 15.76C92.0852 16.16 91.6552 16.455 91.1152 16.645ZM87.2452 15.955H89.3602C89.9202 15.955 90.3552 15.83 90.6652 15.58C90.9852 15.32 91.1452 14.95 91.1452 14.47C91.1452 14 90.9852 13.635 90.6652 13.375C90.3552 13.105 89.9202 12.97 89.3602 12.97H87.2452V15.955ZM89.5552 20.605C90.1352 20.605 90.5902 20.465 90.9202 20.185C91.2502 19.905 91.4152 19.515 91.4152 19.015C91.4152 18.505 91.2402 18.1 90.8902 17.8C90.5402 17.5 90.0752 17.35 89.4952 17.35H87.2452V20.605H89.5552Z" fill="black"/>
</svg>
